<mxfile host="app.diagrams.net" agent="Mozilla/5.0 (Windows NT 10.0; Win64; x64) AppleWebKit/537.36 (KHTML, like Gecko) Chrome/136.0.0.0 Safari/537.36" version="26.2.14">
  <diagram name="第 1 页" id="gcvqBqKdxTJfSHki19oz">
    <mxGraphModel dx="1199" dy="671" grid="1" gridSize="10" guides="1" tooltips="1" connect="1" arrows="1" fold="1" page="1" pageScale="1" pageWidth="827" pageHeight="1169" math="0" shadow="0">
      <root>
        <mxCell id="0" />
        <mxCell id="1" parent="0" />
        <mxCell id="awnkAKVBkHFtVjLc0B4l-1" value="" style="edgeStyle=orthogonalEdgeStyle;rounded=0;orthogonalLoop=1;jettySize=auto;html=1;" edge="1" parent="1">
          <mxGeometry relative="1" as="geometry">
            <mxPoint x="135" y="160" as="sourcePoint" />
            <mxPoint x="135" y="240" as="targetPoint" />
          </mxGeometry>
        </mxCell>
        <mxCell id="awnkAKVBkHFtVjLc0B4l-4" value="&lt;font style=&quot;color: rgb(0, 0, 0); font-size: 18px;&quot;&gt;A&lt;/font&gt;" style="ellipse;whiteSpace=wrap;html=1;aspect=fixed;fillColor=#66B2FF;" vertex="1" parent="1">
          <mxGeometry x="120" y="120" width="40" height="40" as="geometry" />
        </mxCell>
        <mxCell id="awnkAKVBkHFtVjLc0B4l-5" value="" style="edgeStyle=orthogonalEdgeStyle;rounded=0;orthogonalLoop=1;jettySize=auto;html=1;" edge="1" parent="1">
          <mxGeometry relative="1" as="geometry">
            <mxPoint x="240" y="136" as="sourcePoint" />
            <mxPoint x="160" y="136" as="targetPoint" />
          </mxGeometry>
        </mxCell>
        <mxCell id="awnkAKVBkHFtVjLc0B4l-6" value="" style="edgeStyle=orthogonalEdgeStyle;rounded=0;orthogonalLoop=1;jettySize=auto;html=1;" edge="1" parent="1">
          <mxGeometry relative="1" as="geometry">
            <mxPoint x="256" y="160" as="sourcePoint" />
            <mxPoint x="256" y="240" as="targetPoint" />
          </mxGeometry>
        </mxCell>
        <mxCell id="awnkAKVBkHFtVjLc0B4l-8" value="&lt;font style=&quot;color: rgb(0, 0, 0); font-size: 18px;&quot;&gt;B&lt;/font&gt;" style="ellipse;whiteSpace=wrap;html=1;aspect=fixed;fillColor=#66B2FF;" vertex="1" parent="1">
          <mxGeometry x="240" y="120" width="40" height="40" as="geometry" />
        </mxCell>
        <mxCell id="awnkAKVBkHFtVjLc0B4l-9" value="" style="edgeStyle=orthogonalEdgeStyle;rounded=0;orthogonalLoop=1;jettySize=auto;html=1;" edge="1" parent="1">
          <mxGeometry relative="1" as="geometry">
            <mxPoint x="240" y="256" as="sourcePoint" />
            <mxPoint x="160" y="256" as="targetPoint" />
          </mxGeometry>
        </mxCell>
        <mxCell id="awnkAKVBkHFtVjLc0B4l-12" value="&lt;font style=&quot;color: rgb(0, 0, 0); font-size: 18px;&quot;&gt;C&lt;/font&gt;" style="ellipse;whiteSpace=wrap;html=1;aspect=fixed;fillColor=#66B2FF;" vertex="1" parent="1">
          <mxGeometry x="240" y="240" width="40" height="40" as="geometry" />
        </mxCell>
        <mxCell id="awnkAKVBkHFtVjLc0B4l-13" value="" style="edgeStyle=orthogonalEdgeStyle;rounded=0;orthogonalLoop=1;jettySize=auto;html=1;" edge="1" parent="1">
          <mxGeometry relative="1" as="geometry">
            <mxPoint x="144" y="240" as="sourcePoint" />
            <mxPoint x="144" y="160" as="targetPoint" />
          </mxGeometry>
        </mxCell>
        <mxCell id="awnkAKVBkHFtVjLc0B4l-15" style="rounded=0;orthogonalLoop=1;jettySize=auto;html=1;exitX=1;exitY=0;exitDx=0;exitDy=0;entryX=0;entryY=1;entryDx=0;entryDy=0;" edge="1" parent="1">
          <mxGeometry relative="1" as="geometry">
            <mxPoint x="151.14213562373095" y="242.85786437626894" as="sourcePoint" />
            <mxPoint x="242.85786437627212" y="151.14213562372777" as="targetPoint" />
          </mxGeometry>
        </mxCell>
        <mxCell id="awnkAKVBkHFtVjLc0B4l-16" value="&lt;font style=&quot;color: rgb(0, 0, 0); font-size: 18px;&quot;&gt;D&lt;/font&gt;" style="ellipse;whiteSpace=wrap;html=1;aspect=fixed;fillColor=#66B2FF;" vertex="1" parent="1">
          <mxGeometry x="120" y="240" width="40" height="40" as="geometry" />
        </mxCell>
        <mxCell id="awnkAKVBkHFtVjLc0B4l-17" value="&lt;font style=&quot;font-size: 18px;&quot;&gt;有向图&lt;/font&gt;" style="text;html=1;align=center;verticalAlign=middle;whiteSpace=wrap;rounded=0;" vertex="1" parent="1">
          <mxGeometry x="160" y="80" width="130" height="30" as="geometry" />
        </mxCell>
        <mxCell id="awnkAKVBkHFtVjLc0B4l-20" style="rounded=0;orthogonalLoop=1;jettySize=auto;html=1;exitX=0.5;exitY=0;exitDx=0;exitDy=0;entryX=1;entryY=0.5;entryDx=0;entryDy=0;" edge="1" parent="1" source="awnkAKVBkHFtVjLc0B4l-18" target="awnkAKVBkHFtVjLc0B4l-8">
          <mxGeometry relative="1" as="geometry" />
        </mxCell>
        <mxCell id="awnkAKVBkHFtVjLc0B4l-21" style="rounded=0;orthogonalLoop=1;jettySize=auto;html=1;exitX=0.5;exitY=1;exitDx=0;exitDy=0;entryX=1;entryY=0.5;entryDx=0;entryDy=0;" edge="1" parent="1" source="awnkAKVBkHFtVjLc0B4l-18" target="awnkAKVBkHFtVjLc0B4l-12">
          <mxGeometry relative="1" as="geometry" />
        </mxCell>
        <mxCell id="awnkAKVBkHFtVjLc0B4l-18" value="&lt;span style=&quot;font-size: 18px;&quot;&gt;E&lt;/span&gt;" style="ellipse;whiteSpace=wrap;html=1;aspect=fixed;fillColor=#66B2FF;" vertex="1" parent="1">
          <mxGeometry x="360" y="180" width="40" height="40" as="geometry" />
        </mxCell>
      </root>
    </mxGraphModel>
  </diagram>
</mxfile>
